<svg width="58" height="46" viewBox="0 0 58 46" fill="none" xmlns="http://www.w3.org/2000/svg">
<path d="M29.2508 2.91182C33.4516 0.854979 38.0964 -0.139663 42.7748 0.0157853C47.4532 0.171234 52.0212 1.47199 56.075 3.8031C56.4588 4.02382 56.7857 4.33066 57.0296 4.69923C57.2735 5.0678 57.4277 5.48795 57.48 5.92629L57.5 6.26123V43.1615C57.5 43.6598 57.3683 44.1492 57.1181 44.5807C56.868 45.0122 56.5082 45.3705 56.075 45.6197C55.6417 45.8688 55.1503 45.9999 54.65 45.9999C54.1497 45.9999 53.6582 45.8688 53.225 45.6196C49.759 43.6266 45.8272 42.5774 41.825 42.5774C37.8228 42.5774 33.891 43.6266 30.425 45.6196C29.9917 45.8688 29.5003 45.9999 29 45.9999C28.4997 45.9999 28.0083 45.8688 27.575 45.6196C24.2367 43.6997 20.4641 42.6542 16.6098 42.5807C12.7556 42.5072 8.9456 43.4082 5.53595 45.1995L4.604 45.7105L4.31045 45.8354L4.1708 45.8808L3.8573 45.9546L3.68345 45.983L3.35 46H3.2303L2.9168 45.9659L2.69735 45.9262L2.38955 45.8354L2.03045 45.6764L1.7597 45.5175L1.50605 45.3273L1.33505 45.1683L1.127 44.9356L0.9446 44.6829L0.8819 44.5808L0.7907 44.4104L0.6653 44.1181L0.6197 43.979L0.5456 43.6668L0.5171 43.4936L0.5057 43.3545L0.5 43.1615V6.26123C0.500013 5.76298 0.631707 5.27352 0.881846 4.84203C1.13198 4.41054 1.49176 4.05223 1.925 3.8031C5.97883 1.47199 10.5468 0.171234 15.2252 0.0157853C19.9036 -0.139663 24.5484 0.854979 28.7492 2.91182L29 3.03671L29.2508 2.91182Z" fill="current"/>
</svg>
