<svg width="50" height="50" viewBox="0 0 50 50" fill="none" xmlns="http://www.w3.org/2000/svg">
<path fill-rule="evenodd" clip-rule="evenodd" d="M31.1754 0.230297C37.3682 -0.591152 43.1787 0.807234 46.3747 4.0683C48.5018 6.24143 49.5519 8.76897 49.498 11.541C49.4523 14.1812 48.4076 16.7444 46.9724 19.1346C44.9207 22.555 41.7166 26.176 38.1679 29.8904L36.2051 31.9234L31.8539 36.3658L29.9934 38.2395C26.2831 41.9374 22.6644 45.2891 19.2529 47.4183C16.9104 48.8826 14.3983 49.9458 11.8108 49.998C9.09406 50.0529 6.61694 48.9815 4.48716 46.8084C1.29113 43.5473 -0.0793605 37.6186 0.725703 31.2997C1.55231 24.8161 4.6864 17.467 11.1511 10.8679C17.6186 4.27435 24.8238 1.07372 31.1754 0.230297ZM8.28092 24.3518C7.36614 26.3513 6.69518 28.4577 6.28307 30.6239C7.41393 31.6129 8.75749 32.3767 10.3003 32.9042C10.978 33.1348 11.7177 33.0813 12.3567 32.7554C12.9957 32.4295 13.4817 31.858 13.7077 31.1665C13.9337 30.475 13.8813 29.7202 13.5619 29.0682C13.2425 28.4162 12.6824 27.9204 12.0047 27.6898C10.2088 27.0798 9.01059 26.0084 8.28092 24.349V24.3518ZM16.3585 13.4009C15.0013 14.6487 13.736 15.9967 12.5728 17.434C13.0951 18.1236 13.666 18.7775 14.2449 19.3681C15.82 20.9726 17.834 22.5138 19.8184 23.1869C20.4706 23.4116 21.1825 23.3729 21.8076 23.0786C22.4327 22.7843 22.9237 22.2569 23.1795 21.6047C23.4353 20.9526 23.4365 20.2252 23.183 19.5721C22.9294 18.9191 22.4403 18.3899 21.8162 18.0934L21.5227 17.9752C20.6531 17.6813 19.3364 16.7939 18.0548 15.4834C17.4247 14.8468 16.8566 14.1494 16.3585 13.4009ZM28.2594 6.45023C26.5954 6.93925 24.8695 7.63158 23.1248 8.56017C24.5249 10.8871 26.6224 12.5493 29.3391 13.4751C29.6759 13.5949 30.0325 13.6451 30.3885 13.6231C30.7444 13.601 31.0925 13.507 31.4125 13.3466C31.7326 13.1861 32.0182 12.9624 32.2528 12.6884C32.4874 12.4144 32.6664 12.0956 32.7792 11.7504C32.8921 11.4053 32.9366 11.0407 32.9103 10.6778C32.884 10.315 32.7872 9.9611 32.6258 9.6367C32.4643 9.3123 32.2413 9.02386 31.9696 8.78812C31.698 8.55238 31.3832 8.37404 31.0435 8.26346C29.8749 7.8651 28.9595 7.27443 28.2594 6.45023Z" fill="current"/>
</svg>
