<svg width="58" height="50" viewBox="0 0 58 50" fill="none" xmlns="http://www.w3.org/2000/svg">
<path d="M0.5 44.4444L6.2 50H51.8L57.5 44.4444H0.5ZM3.35 41.6667H51.7145C52.541 32.6111 45.2165 25 36.0965 25C29.399 25 23.699 29.1111 21.4475 34.8611C20.279 34.2222 18.968 33.8056 17.6 33.5556V16.6667H29V10.4167H54.65V6.25H29V0H3.35V4.16667H6.2V6.25H3.35V10.4167H6.2V12.5H3.35V16.6667H6.2V37.1944C4.946 38.4722 3.977 39.9722 3.35 41.6667ZM17.6 12.5V10.4167H23.3V12.5H17.6ZM23.3 6.25H17.6V4.16667H23.3V6.25ZM10.475 4.16667H13.325V6.25H10.475V4.16667ZM10.475 10.4167H13.325V12.5H10.475V10.4167ZM13.325 16.6667V33.5C12.3275 33.6667 11.387 33.9722 10.475 34.3333V16.6667H13.325Z" fill="current"/>
</svg>
