<svg width="57" height="50" viewBox="0 0 57 50" fill="none" xmlns="http://www.w3.org/2000/svg">
<path d="M50.4231 6.52174H42.8267L39.0916 0.967392C38.8915 0.669977 38.6205 0.426095 38.3026 0.257352C37.9847 0.0886092 37.6298 0.000214687 37.2692 0H19.7308C19.3702 0.000214687 19.0153 0.0886092 18.6974 0.257352C18.3795 0.426095 18.1085 0.669977 17.9084 0.967392L14.1705 6.52174H6.57692C4.83261 6.52174 3.15975 7.20885 1.92634 8.43191C0.692924 9.65498 0 11.3138 0 13.0435V43.4783C0 45.2079 0.692924 46.8668 1.92634 48.0898C3.15975 49.3129 4.83261 50 6.57692 50H50.4231C52.1674 50 53.8403 49.3129 55.0737 48.0898C56.3071 46.8668 57 45.2079 57 43.4783V13.0435C57 11.3138 56.3071 9.65498 55.0737 8.43191C53.8403 7.20885 52.1674 6.52174 50.4231 6.52174ZM38.3654 27.1739C38.3654 29.1087 37.7868 31.0001 36.7028 32.6088C35.6187 34.2176 34.078 35.4714 32.2753 36.2119C30.4727 36.9523 28.4891 37.146 26.5754 36.7686C24.6617 36.3911 22.9038 35.4594 21.5241 34.0913C20.1444 32.7231 19.2048 30.98 18.8242 29.0824C18.4435 27.1848 18.6389 25.2178 19.3856 23.4303C20.1323 21.6427 21.3967 20.1149 23.0191 19.04C24.6414 17.965 26.5488 17.3913 28.5 17.3913C31.1165 17.3913 33.6258 18.422 35.4759 20.2566C37.326 22.0912 38.3654 24.5794 38.3654 27.1739Z" fill="current"/>
</svg>
