<svg width="57" height="50" viewBox="0 0 57 50" fill="none" xmlns="http://www.w3.org/2000/svg">
<path d="M0 50H51.3V44.4444H0M51.3 13.8889H45.6V5.55556H51.3M51.3 0H5.7V27.7778C5.7 30.7246 6.90107 33.5508 9.03898 35.6345C11.1769 37.7183 14.0765 38.8889 17.1 38.8889H34.2C37.2235 38.8889 40.1231 37.7183 42.261 35.6345C44.3989 33.5508 45.6 30.7246 45.6 27.7778V19.4444H51.3C52.8117 19.4444 54.2615 18.8591 55.3305 17.8173C56.3995 16.7754 57 15.3623 57 13.8889V5.55556C57 4.08213 56.3995 2.66905 55.3305 1.62718C54.2615 0.585316 52.8117 0 51.3 0Z" fill="current"/>
</svg>
