<svg width="52" height="50" viewBox="0 0 52 50" fill="none" xmlns="http://www.w3.org/2000/svg">
<mask id="mask0_3354_3090" style="mask-type:luminance" maskUnits="userSpaceOnUse" x="0" y="0" width="52" height="50">
<path fill-rule="evenodd" clip-rule="evenodd" d="M31.474 13.1059C31.9871 14.2718 31.4553 15.6316 30.2862 16.1433L19.5713 20.8329H38.6973L35.5762 16.5377C34.8271 15.5067 35.0578 14.0654 36.0916 13.3183C37.1254 12.5713 38.5708 12.8014 39.3199 13.8324L45.0991 21.7855C45.6089 22.487 45.6812 23.4143 45.2863 24.186C44.8914 24.9576 44.096 25.4434 43.2273 25.4434H8.55214C7.45836 25.4434 6.51428 24.6789 6.28971 23.6114C6.06514 22.5439 6.62155 21.4656 7.62311 21.0272L28.4282 11.9215C29.5972 11.4098 30.9609 11.9401 31.474 13.1059Z" fill="white"/>
<path d="M34.0582 17.4776C36.6188 17.4776 38.6946 15.3975 38.6946 12.8316C38.6946 10.2656 36.6188 8.18555 34.0582 8.18555C31.4976 8.18555 29.4219 10.2656 29.4219 12.8316C29.4219 15.3975 31.4976 17.4776 34.0582 17.4776Z" fill="black"/>
<path fill-rule="evenodd" clip-rule="evenodd" d="M33.9487 10.6187C32.6684 10.6187 31.6305 11.6587 31.6305 12.9417C31.6305 14.2246 32.6684 15.2647 33.9487 15.2647C35.229 15.2647 36.2669 14.2246 36.2669 12.9417C36.2669 11.6587 35.229 10.6187 33.9487 10.6187ZM26.9941 12.9417C26.9941 9.0928 30.1078 5.97266 33.9487 5.97266C37.7896 5.97266 40.9032 9.0928 40.9032 12.9417C40.9032 16.7906 37.7896 19.9107 33.9487 19.9107C30.1078 19.9107 26.9941 16.7906 26.9941 12.9417Z" fill="white"/>
<path fill-rule="evenodd" clip-rule="evenodd" d="M39.4683 0.169394C40.6379 0.653381 41.2069 2.0266 40.739 3.23657L38.458 9.13557C37.9902 10.3455 36.6627 10.9341 35.493 10.4501C34.3234 9.96609 33.7545 8.59287 34.2223 7.3829L36.5033 1.4839C36.9712 0.273931 38.2986 -0.314592 39.4683 0.169394Z" fill="white"/>
<path fill-rule="evenodd" clip-rule="evenodd" d="M5.98326 28.2316C6.65978 27.7907 7.38639 27.3757 8.15922 26.9902L10.2271 31.1436C9.6047 31.4541 9.03335 31.7814 8.51387 32.1199C6.02002 33.7482 5.13636 35.3728 5.13636 36.6576C5.13636 38.2861 6.6072 40.4557 10.6025 42.3551C14.4231 44.1715 19.8642 45.3586 26 45.3586C32.1358 45.3586 37.5769 44.1715 41.3975 42.3551C45.3928 40.4557 46.8636 38.2861 46.8636 36.6576C46.8636 35.34 45.9326 33.6664 43.3067 32.005L45.7842 28.0825C48.9816 30.1056 51.5 33.0099 51.5 36.6576C51.5 41.1163 47.7816 44.4574 43.3868 46.5468C38.8173 48.7192 32.6675 49.9991 26 49.9991C19.3325 49.9991 13.1827 48.7192 8.61322 46.5468C4.21842 44.4574 0.5 41.1163 0.5 36.6576C0.5 33.0979 2.90334 30.2423 5.98178 28.2326L5.98326 28.2316Z" fill="white"/>
<path d="M8.44824 23.4512H43.3314V37.3892H8.44824V23.4512Z" fill="white"/>
<path fill-rule="evenodd" clip-rule="evenodd" d="M6.24023 23.3406C6.24023 22.0576 7.27521 21.0176 8.55192 21.0176H43.2272C44.504 21.0176 45.5389 22.0576 45.5389 23.3406V37.2786C45.5389 38.5616 44.504 39.6017 43.2272 39.6017H8.55192C7.27521 39.6017 6.24023 38.5616 6.24023 37.2786V23.3406ZM10.8636 25.6636V34.9556H40.9156V25.6636H10.8636Z" fill="white"/>
<path fill-rule="evenodd" clip-rule="evenodd" d="M44.4353 25.6636H8.44824V21.0176H44.4353V25.6636Z" fill="white"/>
</mask>
<g mask="url(#mask0_3354_3090)">
<path d="M-1.92969 -2.21289H53.7067V53.5393H-1.92969V-2.21289Z" fill="current"/>
</g>
</svg>
