<svg width="59" height="48" viewBox="0 0 59 48" fill="none" xmlns="http://www.w3.org/2000/svg">
<path d="M58.9508 18.717C58.9157 18.5583 58.8643 18.4035 58.7972 18.255L52.9924 5.031C51.6542 1.9755 48.3984 0 44.694 0H14.306C10.6047 0 7.34582 1.9755 6.00911 5.031L0.198223 18.255C0.06616 18.5533 -0.00131956 18.875 1.95467e-05 19.2V45.6C1.95467e-05 46.2365 0.259022 46.847 0.720049 47.2971C1.18108 47.7471 1.80636 48 2.45835 48H7.37502C8.02701 48 8.65229 47.7471 9.11332 47.2971C9.57435 46.847 9.83335 46.2365 9.83335 45.6V43.2H49.1667V45.6C49.1667 46.2365 49.4257 46.847 49.8867 47.2971C50.3477 47.7471 50.973 48 51.625 48H56.5417C57.1937 48 57.8189 47.7471 58.28 47.2971C58.741 46.847 59 46.2365 59 45.6V19.2C59.0002 19.0378 58.9837 18.876 58.9508 18.717ZM12.2917 33.6C11.3193 33.6 10.3687 33.3185 9.56013 32.7911C8.75159 32.2636 8.12141 31.514 7.74927 30.6369C7.37714 29.7598 7.27978 28.7947 7.46949 27.8636C7.6592 26.9325 8.12747 26.0772 8.81507 25.4059C9.50268 24.7346 10.3787 24.2774 11.3325 24.0922C12.2862 23.907 13.2748 24.0021 14.1732 24.3654C15.0716 24.7287 15.8395 25.3439 16.3797 26.1333C16.92 26.9226 17.2083 27.8507 17.2083 28.8C17.2083 30.073 16.6903 31.2939 15.7683 32.1941C14.8462 33.0943 13.5957 33.6 12.2917 33.6ZM46.7083 33.6C45.7359 33.6 44.7853 33.3185 43.9768 32.7911C43.1682 32.2636 42.5381 31.514 42.1659 30.6369C41.7938 29.7598 41.6964 28.7947 41.8861 27.8636C42.0759 26.9325 42.5441 26.0772 43.2317 25.4059C43.9193 24.7346 44.7954 24.2774 45.7491 24.0922C46.7029 23.907 47.6915 24.0021 48.5899 24.3654C49.4883 24.7287 50.2561 25.3439 50.7964 26.1333C51.3366 26.9226 51.625 27.8507 51.625 28.8C51.625 30.073 51.107 31.2939 50.1849 32.1941C49.2629 33.0943 48.0123 33.6 46.7083 33.6ZM6.1858 16.8L10.5232 6.9225C11.0794 5.6535 12.599 4.8 14.306 4.8H44.694C46.3995 4.8 47.9206 5.6535 48.4768 6.9225L52.8142 16.8H6.1858Z" fill="current"/>
</svg>
