<svg width="342" height="126" viewBox="0 0 342 138" fill="none" xmlns="http://www.w3.org/2000/svg">
<path d="M57.8771 19.4511C58.7113 17.9674 60.1192 16.9606 62.1006 16.4307C64.1862 15.7948 66.8454 15.4769 70.0782 15.4769C73.4153 15.4769 76.0745 15.8478 78.0558 16.5897C80.0372 17.2255 81.4451 18.3383 82.2793 19.928C83.1136 21.4117 83.5829 22.7894 83.6871 24.0611C83.8957 25.3329 84 27.1875 84 29.625V118.011C84 122.144 83.4786 125.217 82.4358 127.231C81.4972 129.139 79.9851 130.41 77.8994 131.046C75.9181 131.682 73.4153 132 70.3911 132C67.3669 132 64.9683 131.735 63.1955 131.205C61.4227 130.675 60.067 130.039 59.1285 129.298C58.1899 128.556 57.5121 127.496 57.095 126.118C56.4693 124.317 56.1564 121.561 56.1564 117.852V98.4579H13.7654C6.46555 98.4579 2.1378 96.4443 0.782122 92.4171C0.260707 90.7215 0 88.4429 0 85.5815C0 82.7201 0.156428 80.6005 0.469277 79.2228L13.4525 25.9688C14.0782 23.5312 14.5996 21.6766 15.0168 20.4049C15.5382 19.1332 16.4767 17.9144 17.8324 16.7486C19.2924 15.5829 21.1173 15 23.3073 15C25.4972 15 27.8957 15.3709 30.5028 16.1128C37.8026 18.1264 41.4525 21.5177 41.4525 26.2867C41.4525 27.9823 41.0875 30.2079 40.3575 32.9633C40.2533 33.1753 40.2011 33.3342 40.2011 33.4402L30.6592 72.2283H56.1564V28.8302C56.1564 26.3927 56.2086 24.591 56.3128 23.4253C56.5214 22.2595 57.0428 20.9348 57.8771 19.4511Z" fill="#373737"/>
<path d="M171 132C205.794 132 234 103.794 234 69.0002C234 34.2062 205.794 6 171 6C136.206 6 108 34.2062 108 69.0002C108 103.794 136.206 132 171 132Z" fill="#FF5955" stroke="#373737" stroke-width="11" stroke-linecap="round" stroke-linejoin="round"/>
<path d="M159.87 31.4493C155.301 30.447 146.252 31.1595 141.787 35.9902C137.323 40.8209 146.054 41.63 144.666 47.6684C143.277 53.7027 142.782 48.872 133.861 53.3001C124.94 57.7283 120.48 67.7922 126.426 71.4152C137.138 77.9407 144.762 61.3513 150.712 66.182C156.662 71.0127 162.439 76.7612 166.983 72.8805C171.528 68.9999 174.998 60.9487 171.033 58.1308C167.068 55.3129 164.588 46.8955 172.768 43.8602C180.948 40.8209 164.701 32.5081 159.874 31.4493H159.87Z" fill="#3F2300"/>
<path d="M184.014 101.813C188.688 101.708 197.318 98.8822 200.515 93.1337C203.711 87.3852 195.036 88.6613 194.963 82.4659C194.891 76.2706 196.509 80.8477 204.134 74.443C211.758 68.0383 213.719 57.2014 207.084 55.084C195.133 51.2718 191.638 69.1896 184.718 65.9007C177.798 62.6118 170.826 58.389 167.324 63.2318C163.822 68.0745 162.352 76.7174 166.869 78.5209C171.386 80.3243 175.782 87.9166 168.552 92.7996C161.322 97.6826 179.071 101.926 184.01 101.817L184.014 101.813Z" fill="#3F2300"/>
<path d="M183.464 119.984C180.759 119.984 178.319 118.378 177.249 115.894L172.188 104.176C171.878 103.463 171.186 103 170.425 103C170.373 103 170.32 103 170.268 103.008C169.399 103.081 168.513 103.121 167.635 103.121C155.148 103.121 143.881 95.7101 138.929 84.2372C135.773 76.9308 135.515 68.779 138.204 61.2914C138.418 60.6956 138.893 60.2327 139.489 60.0354L145.523 58.0226C145.736 57.9542 145.954 57.918 146.175 57.918C146.449 57.918 146.727 57.9743 146.98 58.083L147.874 58.4654C148.071 58.55 148.252 58.6627 148.417 58.8036L161.75 70.3852L165.55 67.3418C165.917 67.048 166.371 66.891 166.838 66.891C166.939 66.891 167.04 66.899 167.14 66.9111C167.708 66.9956 168.211 67.3096 168.537 67.7806L172.277 73.2272L176.141 71.5566C176.407 71.4439 176.681 71.3875 176.955 71.3875C177.611 71.3875 178.247 71.7015 178.641 72.2651L183.73 79.5514L188.013 76.6369C188.359 76.3994 188.762 76.2826 189.168 76.2826C189.442 76.2826 189.716 76.335 189.977 76.4477L196.201 79.1046C197.183 79.5232 197.682 80.6262 197.348 81.6447C195.629 86.8417 192.574 91.5074 188.524 95.1344C187.916 95.6819 187.727 96.5635 188.057 97.3324L193.117 109.051C194.595 112.477 193.013 116.47 189.587 117.947L186.149 119.433C185.296 119.803 184.394 119.988 183.472 119.988L183.464 119.984Z" fill="white"/>
<path d="M146.17 59.9678L147.063 60.3502L161.692 73.0549L166.829 68.9367L171.527 75.7762L176.945 73.4373L183.197 82.3862L189.159 78.3324L195.382 80.9893C193.796 85.7797 190.982 90.1515 187.138 93.5934C185.866 94.7366 185.479 96.5723 186.156 98.1383L191.216 109.857C192.246 112.248 191.147 115.022 188.76 116.052L185.322 117.538C184.715 117.799 184.082 117.924 183.459 117.924C181.635 117.924 179.9 116.857 179.131 115.078L174.071 103.359C173.439 101.89 171.998 100.94 170.42 100.94C170.311 100.94 170.198 100.944 170.09 100.952C169.268 101.021 168.447 101.057 167.63 101.057C156.33 101.057 145.578 94.4508 140.812 83.4127C137.756 76.3317 137.72 68.7073 140.135 61.9765L146.17 59.9637M146.17 55.8496C145.731 55.8496 145.292 55.918 144.869 56.0589L138.835 58.0717C137.639 58.4703 136.689 59.3961 136.263 60.5877C133.401 68.5704 133.674 77.2576 137.036 85.0431C142.313 97.2687 154.321 105.171 167.63 105.171C168.528 105.171 169.433 105.135 170.327 105.062L175.355 116.708C176.752 119.949 179.936 122.038 183.463 122.038C184.67 122.038 185.846 121.797 186.957 121.313L190.395 119.828C192.556 118.894 194.227 117.171 195.096 114.981C195.966 112.791 195.93 110.392 194.996 108.226L189.968 96.5804C194.243 92.7279 197.468 87.7805 199.291 82.2775C199.963 80.2486 198.969 78.0386 197.001 77.2013L190.777 74.5444C190.258 74.323 189.71 74.2143 189.163 74.2143C188.35 74.2143 187.54 74.4558 186.848 74.9268L184.244 76.6981L180.319 71.0784C179.53 69.9472 178.257 69.3192 176.945 69.3192C176.398 69.3192 175.846 69.4279 175.315 69.6573L173.004 70.6557L170.222 66.6059C169.574 65.664 168.564 65.0319 167.433 64.8629C167.231 64.8347 167.03 64.8186 166.833 64.8186C165.903 64.8186 164.993 65.1326 164.261 65.7243L161.801 67.6969L149.764 57.2425C149.442 56.9607 149.076 56.7312 148.682 56.5662L147.788 56.1837C147.273 55.9623 146.725 55.8536 146.174 55.8536L146.17 55.8496Z" fill="#373737"/>
<path d="M197.755 71.4635C197.235 71.4635 196.732 71.2662 196.35 70.908L193.198 67.9613L185.795 70.8395C185.549 70.9362 185.299 70.9804 185.05 70.9804C184.237 70.9804 183.464 70.4933 183.142 69.6922L179.688 61.1218L175.533 61.8826C175.409 61.9068 175.284 61.9148 175.163 61.9148C174.33 61.9148 173.565 61.4076 173.251 60.6106L171.025 54.9506L167.088 56.8466C166.802 56.9835 166.496 57.0519 166.198 57.0519C165.558 57.0519 164.93 56.75 164.532 56.2066L153.381 40.8812L147.87 41.4086C147.805 41.4166 147.737 41.4166 147.672 41.4166C146.96 41.4166 146.292 41.0463 145.917 40.4304C145.507 39.7581 145.515 38.9127 145.941 38.2485C146.751 36.9845 147.66 35.7687 148.651 34.6295C153.799 28.6998 160.965 24.948 168.827 24.0624C169.966 23.9335 171.121 23.8691 172.265 23.8691C186.398 23.8691 198.809 33.3816 202.448 46.9961C204.578 54.9546 203.547 63.2715 199.554 70.4088C199.244 70.9603 198.701 71.3387 198.077 71.4353C197.972 71.4514 197.863 71.4595 197.759 71.4595L197.755 71.4635Z" fill="white"/>
<path d="M172.26 25.9268C185.255 25.9268 197.042 34.7508 200.456 47.528C202.533 55.2893 201.317 63.0345 197.754 69.407L193.656 65.5787L191.768 66.3153L185.046 68.9279L180.964 58.7996L175.159 59.8623L172.12 52.1413L166.186 54.9994L154.785 39.3319L154.343 38.7241L153.996 38.7603L147.664 39.3641C148.421 38.1806 149.27 37.0494 150.196 35.9826C154.814 30.6649 161.375 26.9734 169.048 26.1119C170.123 25.9912 171.194 25.9308 172.256 25.9308M172.256 21.8166C171.037 21.8166 169.805 21.8851 168.589 22.0219C160.216 22.9639 152.579 26.9654 147.089 33.2855C146.03 34.5053 145.06 35.8015 144.198 37.146C143.349 38.4704 143.333 40.1652 144.15 41.5098C144.903 42.7416 146.235 43.4783 147.66 43.4783C147.789 43.4783 147.922 43.4702 148.051 43.4581L152.39 43.0435L162.849 57.4188C163.646 58.5138 164.894 59.1136 166.178 59.1136C166.782 59.1136 167.39 58.9807 167.961 58.707L169.901 57.7731L171.318 61.3719C171.946 62.9661 173.48 63.9805 175.147 63.9805C175.392 63.9805 175.642 63.9604 175.888 63.9121L178.391 63.4532L181.217 70.4657C181.861 72.0679 183.403 73.0421 185.034 73.0421C185.529 73.0421 186.032 72.9535 186.523 72.7603L192.722 70.353L194.928 72.4141C195.697 73.1306 196.704 73.5211 197.738 73.5211C197.948 73.5211 198.161 73.505 198.37 73.4728C199.618 73.2796 200.709 72.5187 201.329 71.4157C205.588 63.8074 206.683 54.9471 204.417 46.4652C202.541 39.4406 198.282 33.1164 192.429 28.6601C186.624 24.2441 179.458 21.8086 172.244 21.8086L172.256 21.8166Z" fill="#373737"/>
<path d="M155.896 36.5913C168.963 23.8665 190.307 31.6157 196.031 47.8669C196.772 50.0488 197.392 52.3555 197.207 54.6702C195.842 50.5037 193.375 46.6794 190.609 43.3341C181.68 32.6623 168.118 29.1963 155.896 36.5913Z" fill="#373737"/>
<path d="M154.645 91.3262C162.289 93.8824 170.707 95.0901 178.496 92.4775C171.186 96.334 161.762 95.0498 154.645 91.3262Z" fill="#373737"/>
<path d="M145.515 83.1461C143.506 80.2114 142.552 76.3912 143.272 72.8809C143.401 76.4354 144.291 79.8048 145.515 83.1461Z" fill="#373737"/>
<path d="M315.877 19.4511C316.711 17.9674 318.119 16.9606 320.101 16.4307C322.186 15.7948 324.845 15.4769 328.078 15.4769C331.415 15.4769 334.074 15.8478 336.056 16.5897C338.037 17.2255 339.445 18.3383 340.279 19.928C341.114 21.4117 341.583 22.7894 341.687 24.0611C341.896 25.3329 342 27.1875 342 29.625V118.011C342 122.144 341.479 125.217 340.436 127.231C339.497 129.139 337.985 130.41 335.899 131.046C333.918 131.682 331.415 132 328.391 132C325.367 132 322.968 131.735 321.196 131.205C319.423 130.675 318.067 130.039 317.128 129.298C316.19 128.556 315.512 127.496 315.095 126.118C314.469 124.317 314.156 121.561 314.156 117.852V98.4579H271.765C264.466 98.4579 260.138 96.4443 258.782 92.4171C258.261 90.7215 258 88.4429 258 85.5815C258 82.7201 258.156 80.6005 258.469 79.2228L271.453 25.9688C272.078 23.5312 272.6 21.6766 273.017 20.4049C273.538 19.1332 274.477 17.9144 275.832 16.7486C277.292 15.5829 279.117 15 281.307 15C283.497 15 285.896 15.3709 288.503 16.1128C295.803 18.1264 299.453 21.5177 299.453 26.2867C299.453 27.9823 299.088 30.2079 298.358 32.9633C298.253 33.1753 298.201 33.3342 298.201 33.4402L288.659 72.2283H314.156V28.8302C314.156 26.3927 314.209 24.591 314.313 23.4253C314.521 22.2595 315.043 20.9348 315.877 19.4511Z" fill="#373737"/>
</svg>
