<svg width="26.67" height="30.5" viewBox="0 0 28 34" fill="none" xmlns="http://www.w3.org/2000/svg">
<path d="M14.3346 20.0013C18.0113 20.0013 21.0013 17.0113 21.0013 13.3346C21.0013 9.65797 18.0113 6.66797 14.3346 6.66797C10.658 6.66797 7.66797 9.65797 7.66797 13.3346C7.66797 17.0113 10.658 20.0013 14.3346 20.0013ZM14.3346 10.0013C16.173 10.0013 17.668 11.4963 17.668 13.3346C17.668 15.173 16.173 16.668 14.3346 16.668C12.4963 16.668 11.0013 15.173 11.0013 13.3346C11.0013 11.4963 12.4963 10.0013 14.3346 10.0013Z" fill="current"/>
<path d="M13.0348 33.0233C13.3169 33.2248 13.6548 33.3331 14.0014 33.3331C14.3481 33.3331 14.686 33.2248 14.9681 33.0233C15.4748 32.665 27.3831 24.0667 27.3348 13.3333C27.3348 5.98167 21.3531 0 14.0014 0C6.64978 0 0.668115 5.98167 0.668115 13.325C0.619782 24.0667 12.5281 32.665 13.0348 33.0233ZM14.0014 3.33333C19.5164 3.33333 24.0014 7.81833 24.0014 13.3417C24.0364 20.7383 16.6881 27.38 14.0014 29.5583C11.3164 27.3783 3.96645 20.735 4.00145 13.3333C4.00145 7.81833 8.48645 3.33333 14.0014 3.33333Z" fill="current"/>
</svg>
