<svg width="30" height="29.8" viewBox="0 0 34 32" fill="none" xmlns="http://www.w3.org/2000/svg">
<path d="M12 7.065V30.1667M22 1V24.3333M2 10.5167C2 8.06 2 6.83333 2.655 6.11667C2.88681 5.86172 3.16882 5.65744 3.48333 5.51667C4.37 5.12333 5.535 5.51167 7.865 6.28833C9.64333 6.88167 10.5317 7.17833 11.4317 7.14667C11.7618 7.13581 12.0901 7.09227 12.4117 7.01667C13.2867 6.80833 14.0667 6.28833 15.6267 5.25L17.93 3.71333C19.93 2.38 20.9283 1.71333 22.075 1.56167C23.2217 1.40667 24.3617 1.78667 26.64 2.54667L28.5817 3.19333C30.2317 3.74333 31.0567 4.01833 31.5283 4.67333C32 5.32833 32 6.19833 32 7.93667V21.485C32 23.94 32 25.1683 31.345 25.885C31.1129 26.1387 30.8309 26.3419 30.5167 26.4817C29.63 26.8767 28.465 26.4883 26.135 25.7117C24.3567 25.1183 23.4683 24.8217 22.5683 24.8533C22.2382 24.8642 21.9099 24.9077 21.5883 24.9833C20.7133 25.1917 19.9333 25.7117 18.3733 26.75L16.07 28.2867C14.07 29.62 13.0717 30.2867 11.925 30.4383C10.7783 30.5933 9.63833 30.2133 7.36 29.4533L5.41833 28.8067C3.76833 28.2567 2.94333 27.9817 2.47167 27.3267C2 26.6717 2 25.8 2 24.0633V10.515V10.5167Z" stroke="current" stroke-width="2.5"/>
</svg>
