<svg width="30" height="29" viewBox="0 0 31 29" fill="none" xmlns="http://www.w3.org/2000/svg">
<path d="M30.3704 10.8766C30.2132 10.3939 29.9179 9.96817 29.5212 9.65223C29.1245 9.33629 28.6439 9.14412 28.1391 9.0996L20.7704 8.46105L17.8875 1.57825C17.6892 1.11019 17.3578 0.71095 16.9346 0.4303C16.5114 0.149651 16.0151 0 15.5076 0C15.0001 0 14.5038 0.149651 14.0805 0.4303C13.6573 0.71095 13.3259 1.11019 13.1276 1.57825L10.2409 8.46105L2.87216 9.0996C2.36461 9.1417 1.88077 9.33305 1.48136 9.64964C1.08195 9.96622 0.784753 10.3939 0.627061 10.8791C0.469369 11.3643 0.458207 11.8853 0.594974 12.3769C0.731742 12.8684 1.01035 13.3085 1.39583 13.6419L6.99606 18.5379L5.31547 25.8222C5.20022 26.3182 5.23345 26.8373 5.41102 27.3145C5.58859 27.7917 5.90262 28.2058 6.31384 28.5052C6.72506 28.8046 7.21524 28.9759 7.72309 28.9976C8.23094 29.0194 8.73393 28.8907 9.16918 28.6277L15.5037 24.7731L21.8382 28.6277C22.2734 28.8903 22.7763 29.0187 23.2839 28.9967C23.7915 28.9747 24.2814 28.8034 24.6924 28.5041C25.1034 28.2048 25.4172 27.7908 25.5948 27.3138C25.7723 26.8368 25.8056 26.318 25.6906 25.8222L24.01 18.5379L29.6103 13.6419C29.9947 13.3073 30.272 12.8663 30.4072 12.3743C30.5424 11.8824 30.5296 11.3613 30.3704 10.8766ZM21.7412 16.3969C21.3867 16.7059 21.123 17.1059 20.9783 17.5539C20.8337 18.0019 20.8136 18.4809 20.9203 18.9394L22.3928 25.3274L16.8417 21.9495C16.4386 21.7035 15.9757 21.5734 15.5037 21.5734C15.0317 21.5734 14.5688 21.7035 14.1657 21.9495L8.61459 25.3274L10.087 18.9394C10.1937 18.4809 10.1737 18.0019 10.0291 17.5539C9.88443 17.1059 9.62067 16.7059 9.26614 16.3969L4.34203 12.0929L10.8239 11.5307C11.2933 11.4905 11.7427 11.322 12.1231 11.0436C12.5035 10.7652 12.8004 10.3876 12.9815 9.95185L15.5037 3.93037L18.0259 9.95185C18.207 10.3876 18.5039 10.7652 18.8843 11.0436C19.2647 11.322 19.7141 11.4905 20.1835 11.5307L26.6654 12.0929L21.7412 16.3969Z" fill="current"/>
</svg>
