<svg width="37" height="31" viewBox="0 0 37 31" fill="none" xmlns="http://www.w3.org/2000/svg">
<path d="M18.6628 2.59726C21.3896 1.25584 24.4047 0.607157 27.4416 0.708537C30.4784 0.809916 33.4436 1.65823 36.075 3.17853C36.3242 3.32247 36.5363 3.52258 36.6947 3.76296C36.853 4.00333 36.9531 4.27734 36.987 4.56321L37 4.78165V28.8471C37 29.172 36.9145 29.4912 36.7521 29.7726C36.5898 30.054 36.3562 30.2877 36.075 30.4502C35.7937 30.6127 35.4747 30.6982 35.15 30.6982C34.8253 30.6982 34.5062 30.6127 34.225 30.4502C31.9751 29.1504 29.4229 28.4661 26.825 28.4661C24.2271 28.4661 21.6749 29.1504 19.425 30.4502C19.1438 30.6127 18.8247 30.6982 18.5 30.6982C18.1753 30.6982 17.8562 30.6127 17.575 30.4502C15.408 29.1981 12.9591 28.5162 10.4573 28.4683C7.95539 28.4203 5.48223 29.008 3.26895 30.1762L2.664 30.5094L2.47345 30.5909L2.3828 30.6205L2.1793 30.6686L2.06645 30.6871L1.85 30.6982H1.7723L1.5688 30.676L1.42635 30.6501L1.22655 30.5909L0.99345 30.4872L0.8177 30.3835L0.65305 30.2595L0.54205 30.1558L0.407 30.004L0.2886 29.8393L0.2479 29.7726L0.1887 29.6616L0.1073 29.4709L0.0777001 29.3802L0.0296001 29.1766L0.0111001 29.0636L0.00370017 28.9729L0 28.8471V4.78165C8.24956e-06 4.45671 0.0854938 4.13749 0.247865 3.85609C0.410236 3.57468 0.643771 3.341 0.925 3.17853C3.55643 1.65823 6.52158 0.809916 9.55844 0.708537C12.5953 0.607157 15.6104 1.25584 18.3372 2.59726L18.5 2.67871L18.6628 2.59726Z" fill="current"/>
</svg>
