<svg width="35" height="30" viewBox="0 0 33 33" fill="none" xmlns="http://www.w3.org/2000/svg">
<path fill-rule="evenodd" clip-rule="evenodd" d="M20.5328 1.09563C24.5769 0.569905 28.3712 1.46487 30.4583 3.55196C31.8474 4.94276 32.5331 6.56038 32.4979 8.33449C32.468 10.0242 31.7858 11.6647 30.8487 13.1944C29.5088 15.3835 27.4165 17.7009 25.0991 20.0781L23.8173 21.3792L20.9759 24.2223L19.7609 25.4215C17.338 27.7881 14.9749 29.9333 12.7471 31.2959C11.2174 32.2331 9.57693 32.9135 7.88722 32.947C6.11311 32.9821 4.49549 32.2964 3.10469 30.9056C1.01761 28.8185 0.122639 25.0241 0.648367 20.9801C1.18816 16.8305 3.2348 12.1271 7.45644 7.90371C11.6798 3.68383 16.385 1.63543 20.5328 1.09563ZM5.58211 16.5334C4.98474 17.813 4.54658 19.1612 4.27747 20.5475C5.01594 21.1805 5.89333 21.6693 6.90083 22.0069C7.34337 22.1545 7.82642 22.1202 8.24371 21.9117C8.661 21.7031 8.97834 21.3373 9.12593 20.8948C9.27353 20.4523 9.23927 19.9692 9.03071 19.5519C8.82215 19.1346 8.45636 18.8173 8.01382 18.6697C6.84104 18.2793 6.05861 17.5936 5.58211 16.5316V16.5334ZM10.857 9.52485C9.97071 10.3234 9.14443 11.1861 8.38482 12.106C8.72592 12.5473 9.09868 12.9658 9.47671 13.3438C10.5053 14.3707 11.8205 15.3571 13.1164 15.7879C13.5423 15.9317 14.0072 15.9069 14.4154 15.7185C14.8236 15.5302 15.1442 15.1927 15.3112 14.7753C15.4783 14.3579 15.4791 13.8924 15.3135 13.4744C15.148 13.0564 14.8286 12.7178 14.421 12.528L14.2294 12.4524C13.6614 12.2643 12.8016 11.6963 11.9647 10.8576C11.5532 10.4502 11.1823 10.0039 10.857 9.52485ZM18.6286 5.07639C17.542 5.38936 16.4149 5.83245 15.2755 6.42675C16.1898 7.91602 17.5595 8.97978 19.3337 9.57232C19.5535 9.64895 19.7865 9.68113 20.0189 9.66701C20.2513 9.65288 20.4786 9.59273 20.6876 9.49004C20.8966 9.38735 21.0832 9.24416 21.2364 9.0688C21.3896 8.89344 21.5064 8.6894 21.5801 8.46851C21.6538 8.24762 21.6829 8.01429 21.6657 7.78206C21.6485 7.54984 21.5854 7.32335 21.4799 7.11573C21.3745 6.90811 21.2288 6.72351 21.0514 6.57264C20.8741 6.42177 20.6685 6.30763 20.4466 6.23686C19.6836 5.9819 19.0857 5.60387 18.6286 5.07639Z" fill="current"/>
</svg>
