<svg width="33" height="32" viewBox="0 0 33 32" fill="none" xmlns="http://www.w3.org/2000/svg">
<mask id="mask0_2228_5307" style="mask-type:luminance" maskUnits="userSpaceOnUse" x="0" y="0" width="33" height="32">
<path fill-rule="evenodd" clip-rule="evenodd" d="M19.8649 8.3872C20.1939 9.13332 19.8529 10.0036 19.1031 10.3311L12.2313 13.3324H24.4974L22.4957 10.5835C22.0153 9.92371 22.1633 9.00125 22.8263 8.52313C23.4893 8.04502 24.4163 8.1923 24.8967 8.8521L28.6031 13.9421C28.93 14.3911 28.9764 14.9845 28.7232 15.4784C28.4699 15.9723 27.9598 16.2832 27.4026 16.2832H5.16434C4.46287 16.2832 3.8574 15.7939 3.71337 15.1107C3.56935 14.4275 3.92619 13.7374 4.56852 13.4568L17.9115 7.62915C18.6613 7.30169 19.5358 7.64108 19.8649 8.3872Z" fill="white"/>
<path d="M21.5223 11.1857C23.1645 11.1857 24.4957 9.85441 24.4957 8.21222C24.4957 6.57003 23.1645 5.23877 21.5223 5.23877C19.8801 5.23877 18.5488 6.57003 18.5488 8.21222C18.5488 9.85441 19.8801 11.1857 21.5223 11.1857Z" fill="black"/>
<path fill-rule="evenodd" clip-rule="evenodd" d="M21.4514 6.79669C20.6303 6.79669 19.9647 7.46232 19.9647 8.28342C19.9647 9.10452 20.6303 9.77014 21.4514 9.77014C22.2725 9.77014 22.9381 9.10452 22.9381 8.28342C22.9381 7.46232 22.2725 6.79669 21.4514 6.79669ZM16.9912 8.28342C16.9912 5.82013 18.9881 3.82324 21.4514 3.82324C23.9147 3.82324 25.9116 5.82013 25.9116 8.28342C25.9116 10.7467 23.9147 12.7436 21.4514 12.7436C18.9881 12.7436 16.9912 10.7467 16.9912 8.28342Z" fill="white"/>
<path fill-rule="evenodd" clip-rule="evenodd" d="M24.9914 0.108412C25.7415 0.418164 26.1064 1.29702 25.8063 2.0714L24.3435 5.84677C24.0434 6.62114 23.1921 6.9978 22.4419 6.68805C21.6918 6.3783 21.3269 5.49944 21.627 4.72506L23.0899 0.949694C23.3899 0.175316 24.2413 -0.201339 24.9914 0.108412Z" fill="white"/>
<path fill-rule="evenodd" clip-rule="evenodd" d="M3.51659 18.0689C3.95047 17.7867 4.41647 17.5211 4.91211 17.2744L6.23834 19.9326C5.83914 20.1313 5.47272 20.3408 5.13956 20.5574C3.54017 21.5995 2.97345 22.6392 2.97345 23.4615C2.97345 24.5038 3.91674 25.8923 6.47904 27.1079C8.92932 28.2704 12.4189 29.0302 16.354 29.0302C20.2891 29.0302 23.7787 28.2704 26.2289 27.1079C28.7912 25.8923 29.7345 24.5038 29.7345 23.4615C29.7345 22.6182 29.1374 21.5472 27.4534 20.4838L29.0422 17.9735C31.0928 19.2683 32.708 21.127 32.708 23.4615C32.708 26.3151 30.3232 28.4534 27.5047 29.7906C24.5741 31.1809 20.6301 32.0001 16.354 32.0001C12.0779 32.0001 8.13384 31.1809 5.20328 29.7906C2.38474 28.4534 0 26.3151 0 23.4615C0 21.1833 1.54134 19.3557 3.51565 18.0695L3.51659 18.0689Z" fill="white"/>
<path d="M5.09717 15.0088H27.4688V23.9291H5.09717V15.0088Z" fill="white"/>
<path fill-rule="evenodd" clip-rule="evenodd" d="M3.68164 14.9379C3.68164 14.1168 4.34541 13.4512 5.1642 13.4512H27.4026C28.2214 13.4512 28.8852 14.1168 28.8852 14.9379V23.8583C28.8852 24.6793 28.2214 25.345 27.4026 25.345H5.1642C4.34541 25.345 3.68164 24.6793 3.68164 23.8583V14.9379ZM6.64676 16.4246V22.3715H25.9201V16.4246H6.64676Z" fill="white"/>
<path fill-rule="evenodd" clip-rule="evenodd" d="M28.1768 16.4246H5.09717V13.4512H28.1768V16.4246Z" fill="white"/>
</mask>
<g mask="url(#mask0_2228_5307)">
<path d="M-1.55762 -1.41602H34.1238V34.2654H-1.55762V-1.41602Z" fill="current"/>
</g>
</svg>
