<svg width="39" height="32" viewBox="0 0 39 32" fill="none" xmlns="http://www.w3.org/2000/svg">
<path d="M38.2188 12.8838C38.1965 12.7805 38.1637 12.6797 38.1211 12.583L34.4317 3.97363C33.5811 1.98437 31.5117 0.698242 29.1572 0.698242H9.84279C7.49025 0.698242 5.41896 1.98437 4.56935 3.97363L0.875989 12.583C0.792051 12.7772 0.749161 12.9867 0.750012 13.1982V30.3857C0.750012 30.8001 0.914633 31.1976 1.20766 31.4906C1.50068 31.7836 1.89811 31.9482 2.31251 31.9482H5.43751C5.85191 31.9482 6.24934 31.7836 6.54237 31.4906C6.83539 31.1976 7.00001 30.8001 7.00001 30.3857V28.8232H32V30.3857C32 30.8001 32.1646 31.1976 32.4577 31.4906C32.7507 31.7836 33.1481 31.9482 33.5625 31.9482H36.6875C37.1019 31.9482 37.4993 31.7836 37.7924 31.4906C38.0854 31.1976 38.25 30.8001 38.25 30.3857V13.1982C38.2501 13.0926 38.2397 12.9873 38.2188 12.8838ZM8.56251 22.5732C7.94445 22.5732 7.34026 22.39 6.82636 22.0466C6.31245 21.7032 5.91191 21.2151 5.67539 20.6441C5.43886 20.0731 5.37698 19.4448 5.49756 18.8386C5.61814 18.2324 5.91576 17.6756 6.3528 17.2385C6.78984 16.8015 7.34666 16.5039 7.95286 16.3833C8.55905 16.2627 9.18738 16.3246 9.7584 16.5611C10.3294 16.7976 10.8175 17.1982 11.1609 17.7121C11.5042 18.226 11.6875 18.8302 11.6875 19.4482C11.6875 20.277 11.3583 21.0719 10.7722 21.6579C10.1862 22.244 9.39131 22.5732 8.56251 22.5732ZM30.4375 22.5732C29.8194 22.5732 29.2153 22.39 28.7014 22.0466C28.1875 21.7032 27.7869 21.2151 27.5504 20.6441C27.3139 20.0731 27.252 19.4448 27.3726 18.8386C27.4931 18.2324 27.7908 17.6756 28.2278 17.2385C28.6648 16.8015 29.2217 16.5039 29.8279 16.3833C30.434 16.2627 31.0624 16.3246 31.6334 16.5611C32.2044 16.7976 32.6925 17.1982 33.0359 17.7121C33.3792 18.226 33.5625 18.8302 33.5625 19.4482C33.5625 20.277 33.2333 21.0719 32.6472 21.6579C32.0612 22.244 31.2663 22.5732 30.4375 22.5732ZM4.68165 11.6357L7.43849 5.20508C7.79201 4.37891 8.75782 3.82324 9.84279 3.82324H29.1572C30.2412 3.82324 31.208 4.37891 31.5615 5.20508L34.3184 11.6357H4.68165Z" fill="current"/>
</svg>
