<svg width="13" height="22" viewBox="0 0 13 22" fill="none" xmlns="http://www.w3.org/2000/svg">
<path d="M0.548434 12.3022L9.81879 21.4613C9.99166 21.6321 10.1969 21.7676 10.4228 21.86C10.6486 21.9524 10.8907 22 11.1352 22C11.6289 22 12.1024 21.8062 12.4516 21.4613C12.6244 21.2905 12.7616 21.0877 12.8551 20.8646C12.9487 20.6414 12.9968 20.4022 12.9968 20.1607C12.9968 19.6729 12.8007 19.205 12.4516 18.8601L4.47906 11.0016L12.4516 3.14304C12.6253 2.97275 12.7633 2.77015 12.8574 2.54692C12.9515 2.3237 13 2.08427 13 1.84245C13 1.60062 12.9515 1.36119 12.8574 1.13797C12.7633 0.914743 12.6253 0.712143 12.4516 0.541851C12.2792 0.370157 12.0741 0.233877 11.8482 0.140879C11.6223 0.0478781 11.3799 -1.4163e-07 11.1352 -1.63028e-07C10.8904 -1.84425e-07 10.6481 0.0478781 10.4221 0.140878C10.1962 0.233877 9.99115 0.370157 9.81879 0.541851L0.548434 9.70097C0.374655 9.87126 0.236719 10.0739 0.142591 10.2971C0.048462 10.5203 9.82655e-07 10.7597 9.61514e-07 11.0016C9.40373e-07 11.2434 0.0484619 11.4828 0.14259 11.706C0.236719 11.9293 0.374655 12.1319 0.548434 12.3022Z" fill="#21AE21"/>
</svg>
