<svg width="66" height="78" viewBox="0 0 66 78" fill="none" xmlns="http://www.w3.org/2000/svg">
<g filter="url(#filter0_d_2792_1342)">
<path d="M52.9885 27.9353C52.9857 27.7487 52.9771 27.5593 52.9656 27.3728V27.3556C52.802 24.4945 52.0475 21.6735 50.719 19.0936C50.6473 18.953 50.5727 18.8124 50.4952 18.6717C50.3805 18.4622 50.2628 18.2556 50.1423 18.049C50.062 17.9141 49.9788 17.7764 49.8956 17.6444C49.8612 17.587 49.8267 17.5324 49.7923 17.4779C49.7407 17.3947 49.689 17.3143 49.6288 17.2311C49.5829 17.1594 49.5341 17.0876 49.4853 17.0159C49.4796 17.0044 49.471 16.9901 49.4624 16.9786C49.3046 16.7461 49.141 16.5194 48.9746 16.2927C48.8943 16.1837 48.8111 16.0775 48.7279 15.9684C48.7106 15.9455 48.6934 15.9225 48.6762 15.9024C48.5815 15.7762 48.484 15.6556 48.3836 15.5351C48.3348 15.4748 48.286 15.4146 48.2344 15.3543C48.1655 15.2711 48.0966 15.1879 48.0249 15.1075C47.9446 15.0128 47.8585 14.9152 47.7724 14.8234C47.7437 14.789 47.7122 14.7517 47.6777 14.7201C47.5687 14.5967 47.454 14.4762 47.3392 14.3556C47.3191 14.3356 47.3019 14.3183 47.2818 14.2982C46.5961 13.5865 45.8472 12.915 45.041 12.2894C43.6409 11.2047 42.1432 10.3294 40.591 9.66074C40.2008 9.49429 39.8077 9.33933 39.4118 9.19871C39.2798 9.14992 39.1507 9.10401 39.0158 9.06096C38.8838 9.01504 38.7519 8.97487 38.617 8.93182C38.485 8.88878 38.3502 8.8486 38.2182 8.81129C38.0862 8.77112 37.9571 8.73668 37.828 8.70224C37.8223 8.70224 37.8165 8.69937 37.8108 8.69937C37.6788 8.66494 37.5468 8.6305 37.412 8.59606C37.1423 8.53006 36.8726 8.46979 36.6029 8.4124C36.4938 8.39231 36.3848 8.36935 36.2729 8.34926C36.2184 8.33778 36.1639 8.32917 36.1094 8.32057C36.0004 8.30048 35.8942 8.28326 35.7852 8.26604C35.5126 8.22299 35.24 8.18282 34.9675 8.14838C34.8297 8.13116 34.6949 8.11681 34.5572 8.10246C30.4342 7.68922 26.2395 8.53006 22.5756 10.5504C22.2371 10.7369 21.9014 10.9349 21.5715 11.1444C21.405 11.2477 21.2415 11.3539 21.0808 11.4629C20.9517 11.549 20.8255 11.6351 20.6992 11.7241C20.682 11.7356 20.6648 11.747 20.6505 11.7585C20.5673 11.8188 20.4812 11.8791 20.398 11.9422C20.3435 11.9795 20.2889 12.0197 20.2344 12.0598C20.1627 12.1115 20.0938 12.1632 20.025 12.2177C19.9533 12.2693 19.8844 12.3267 19.8155 12.3813C19.7323 12.4444 19.6491 12.5104 19.5688 12.5793C19.4798 12.651 19.3909 12.7256 19.2991 12.8002C19.2417 12.8462 19.1843 12.8949 19.1298 12.9466C19.0122 13.047 18.8974 13.1475 18.7826 13.2537C18.7654 13.268 18.7482 13.2852 18.731 13.2996C18.599 13.4201 18.467 13.5406 18.3379 13.6669C18.3236 13.6813 18.3092 13.6927 18.2949 13.7099C17.5805 14.3987 16.9062 15.1477 16.2808 15.957C15.377 17.1249 14.6195 18.3561 14.0027 19.636C13.9424 19.7651 13.8822 19.8942 13.8248 20.0205C13.7846 20.1066 13.7444 20.1956 13.7071 20.2817C13.6612 20.385 13.6153 20.4912 13.5723 20.5973C13.4862 20.8011 13.403 21.0077 13.3255 21.2143C13.2567 21.3923 13.1936 21.5731 13.1304 21.7567C12.5107 23.5446 12.1406 25.4243 12.0316 27.324C12.0287 27.3585 12.0287 27.39 12.0287 27.4273C12.0172 27.5909 12.0115 27.7545 12.0086 27.9181C12.0086 27.9238 12.0086 27.9295 12.0086 27.9381C12.0029 28.1189 12 28.2997 12 28.4805V28.5035C12 28.6814 12 28.8565 12.0086 29.0344C12.0115 29.198 12.0201 29.3644 12.0287 29.5309C12.0287 29.5624 12.0287 29.594 12.0316 29.6256C12.043 29.7949 12.0516 29.9642 12.066 30.1364V30.1479C12.1865 31.6114 12.4619 33.0635 12.8894 34.4726C12.9439 34.6505 12.9985 34.8255 13.0587 35.0006C13.0587 35.0035 13.0616 35.0092 13.0616 35.0149C13.119 35.1843 13.1792 35.3536 13.2395 35.5229C13.3026 35.6979 13.3686 35.8701 13.4374 36.0423C13.5034 36.2116 13.5752 36.3867 13.6469 36.556C13.7071 36.6966 13.7674 36.8372 13.8334 36.975C13.8764 37.0697 13.9223 37.1672 13.9654 37.2648C13.9854 37.3136 14.0084 37.3595 14.0342 37.4054C14.6453 38.6681 15.3942 39.8849 16.2894 41.0385L19.081 44.6429L32.5029 61.9877L45.9276 44.6429L48.7135 41.0443C48.7336 41.0184 48.7537 40.9926 48.7738 40.9639C48.8139 40.9151 48.8541 40.8606 48.8914 40.809C48.9545 40.7286 49.0148 40.6454 49.0693 40.565C49.1152 40.5076 49.1554 40.4474 49.1984 40.3871C49.2959 40.2494 49.3935 40.1116 49.4882 39.9739C49.5857 39.8275 49.6804 39.6811 49.778 39.5348C49.7923 39.5118 49.8067 39.486 49.821 39.463C49.8985 39.3425 49.9731 39.222 50.0448 39.1015L50.1137 38.9895C50.1997 38.8432 50.2829 38.6968 50.369 38.5505C50.4608 38.3869 50.5498 38.2233 50.6387 38.0597C52.0302 35.4196 52.8164 32.5211 52.9771 29.5825C52.9771 29.5796 52.9771 29.5768 52.9771 29.571C52.9885 29.3874 52.9943 29.2066 52.9971 29.0258C53.0029 28.8536 53.0057 28.6814 53.0057 28.5064V28.4719C53.0057 28.294 53.0057 28.1132 52.9971 27.9324L52.9885 27.9353ZM32.5918 40.5335C26.2539 40.5335 21.1153 35.3937 21.1153 29.0545C21.1153 22.7152 26.2539 17.5755 32.5918 17.5755C38.9297 17.5755 44.0684 22.7152 44.0684 29.0545C44.0684 35.3937 38.9297 40.5335 32.5918 40.5335Z" fill="#00C900"/>
</g>
<defs>
<filter id="filter0_d_2792_1342" x="0" y="0" width="65.0059" height="77.9883" filterUnits="userSpaceOnUse" color-interpolation-filters="sRGB">
<feFlood flood-opacity="0" result="BackgroundImageFix"/>
<feColorMatrix in="SourceAlpha" type="matrix" values="0 0 0 0 0 0 0 0 0 0 0 0 0 0 0 0 0 0 127 0" result="hardAlpha"/>
<feOffset dy="4"/>
<feGaussianBlur stdDeviation="6"/>
<feComposite in2="hardAlpha" operator="out"/>
<feColorMatrix type="matrix" values="0 0 0 0 0 0 0 0 0 0 0 0 0 0 0 0 0 0 0.25 0"/>
<feBlend mode="normal" in2="BackgroundImageFix" result="effect1_dropShadow_2792_1342"/>
<feBlend mode="normal" in="SourceGraphic" in2="effect1_dropShadow_2792_1342" result="shape"/>
</filter>
</defs>
</svg>
