<svg width="37" height="33" viewBox="0 0 37 33" fill="none" xmlns="http://www.w3.org/2000/svg">
<path d="M0 32.6982H33.3V29.1427H0M33.3 9.58713H29.6V4.2538H33.3M33.3 0.698242H3.7V18.476C3.7 20.362 4.47964 22.1707 5.86741 23.5043C7.25518 24.8379 9.1374 25.5871 11.1 25.5871H22.2C24.1626 25.5871 26.0448 24.8379 27.4326 23.5043C28.8204 22.1707 29.6 20.362 29.6 18.476V13.1427H33.3C34.2813 13.1427 35.2224 12.7681 35.9163 12.1013C36.6102 11.4345 37 10.5301 37 9.58713V4.2538C37 3.31081 36.6102 2.40644 35.9163 1.73964C35.2224 1.07284 34.2813 0.698242 33.3 0.698242Z" fill="#21AE21"/>
</svg>
