<svg width="47" height="43" viewBox="0 0 47 43" fill="none" xmlns="http://www.w3.org/2000/svg">
<g filter="url(#filter0_d_2450_32)">
<path d="M19.3285 32.6146V22.1979H27.6619V32.6146C27.6619 33.7604 28.5994 34.6979 29.7452 34.6979H35.9952C37.141 34.6979 38.0785 33.7604 38.0785 32.6146V18.0312H41.6202C42.5785 18.0312 43.0369 16.8438 42.3077 16.2188L24.891 0.53125C24.0994 -0.177083 22.891 -0.177083 22.0994 0.53125L4.6827 16.2188C3.97437 16.8438 4.41187 18.0312 5.3702 18.0312H8.91187V32.6146C8.91187 33.7604 9.84937 34.6979 10.9952 34.6979H17.2452C18.391 34.6979 19.3285 33.7604 19.3285 32.6146Z" fill="#21AE21"/>
</g>
<defs>
<filter id="filter0_d_2450_32" x="0.333008" y="0" width="46.334" height="42.6982" filterUnits="userSpaceOnUse" color-interpolation-filters="sRGB">
<feFlood flood-opacity="0" result="BackgroundImageFix"/>
<feColorMatrix in="SourceAlpha" type="matrix" values="0 0 0 0 0 0 0 0 0 0 0 0 0 0 0 0 0 0 127 0" result="hardAlpha"/>
<feOffset dy="4"/>
<feGaussianBlur stdDeviation="2"/>
<feComposite in2="hardAlpha" operator="out"/>
<feColorMatrix type="matrix" values="0 0 0 0 0 0 0 0 0 0 0 0 0 0 0 0 0 0 0.25 0"/>
<feBlend mode="normal" in2="BackgroundImageFix" result="effect1_dropShadow_2450_32"/>
<feBlend mode="normal" in="SourceGraphic" in2="effect1_dropShadow_2450_32" result="shape"/>
</filter>
</defs>
</svg>
