<svg width="13" height="22" viewBox="0 0 13 22" fill="none" xmlns="http://www.w3.org/2000/svg">
<path d="M12.4516 9.69784L3.18121 0.538724C3.00834 0.367928 2.80311 0.232445 2.57725 0.14001C2.35138 0.0475759 2.1093 0 1.86482 0C1.37108 0 0.89756 0.193785 0.548431 0.538724C0.37556 0.709521 0.238431 0.912286 0.144874 1.13544C0.051317 1.3586 0.00316504 1.59778 0.00316504 1.83932C0.00316504 2.32714 0.199303 2.79497 0.548431 3.13991L8.52094 10.9984L0.548431 18.857C0.374652 19.0273 0.23672 19.2299 0.142591 19.4531C0.0484626 19.6763 0 19.9157 0 20.1576C0 20.3994 0.0484626 20.6388 0.142591 20.862C0.23672 21.0853 0.374652 21.2879 0.548431 21.4581C0.720791 21.6298 0.925853 21.7661 1.15179 21.8591C1.37772 21.9521 1.62006 22 1.86482 22C2.10958 22 2.35192 21.9521 2.57785 21.8591C2.80379 21.7661 3.00885 21.6298 3.18121 21.4581L12.4516 12.299C12.6253 12.1287 12.7633 11.9261 12.8574 11.7029C12.9515 11.4797 13 11.2403 13 10.9984C13 10.7566 12.9515 10.5172 12.8574 10.294C12.7633 10.0707 12.6253 9.86813 12.4516 9.69784Z" fill="current"/>
</svg>
