<svg width="37" height="33" viewBox="0 0 37 33" fill="none" xmlns="http://www.w3.org/2000/svg">
<path d="M0.366211 29.3927L3.99288 32.9482H33.0062L36.6329 29.3927H0.366211ZM2.17954 27.6149H32.9518C33.4777 21.8194 28.8174 16.9482 23.0147 16.9482C18.7534 16.9482 15.1267 19.5794 13.6942 23.2594C12.9507 22.8505 12.1166 22.5838 11.2462 22.4238V11.6149H18.4995V7.61491H34.8195V4.94824H18.4995V0.948242H2.17954V3.61491H3.99288V4.94824H2.17954V7.61491H3.99288V8.94824H2.17954V11.6149H3.99288V24.7527C3.19501 25.5705 2.57848 26.5305 2.17954 27.6149ZM11.2462 8.94824V7.61491H14.8729V8.94824H11.2462ZM14.8729 4.94824H11.2462V3.61491H14.8729V4.94824ZM6.71288 3.61491H8.52621V4.94824H6.71288V3.61491ZM6.71288 7.61491H8.52621V8.94824H6.71288V7.61491ZM8.52621 11.6149V22.3882C7.89154 22.4949 7.29314 22.6905 6.71288 22.9216V11.6149H8.52621Z" fill="current"/>
</svg>
