<svg width="37" height="33" viewBox="0 0 37 33" fill="none" xmlns="http://www.w3.org/2000/svg">
<path d="M32.7308 5.12216H27.7998L25.3752 1.56737C25.2453 1.37703 25.0694 1.22094 24.8631 1.11295C24.6568 1.00495 24.4264 0.94838 24.1923 0.948242H12.8077C12.5736 0.94838 12.3432 1.00495 12.1369 1.11295C11.9306 1.22094 11.7547 1.37703 11.6248 1.56737L9.19841 5.12216H4.26923C3.13696 5.12216 2.05106 5.56191 1.25043 6.34467C0.449793 7.12743 0 8.18908 0 9.29607V28.7743C0 29.8813 0.449793 30.943 1.25043 31.7257C2.05106 32.5085 3.13696 32.9482 4.26923 32.9482H32.7308C33.863 32.9482 34.9489 32.5085 35.7496 31.7257C36.5502 30.943 37 29.8813 37 28.7743V9.29607C37 8.18908 36.5502 7.12743 35.7496 6.34467C34.9489 5.56191 33.863 5.12216 32.7308 5.12216ZM24.9038 18.3395C24.9038 19.5778 24.5283 20.7883 23.8246 21.8179C23.1209 22.8475 22.1208 23.65 20.9506 24.1238C19.7805 24.5977 18.4929 24.7217 17.2507 24.4801C16.0084 24.2385 14.8674 23.6422 13.9718 22.7666C13.0762 21.8911 12.4663 20.7755 12.2192 19.561C11.9721 18.3465 12.0989 17.0876 12.5836 15.9436C13.0683 14.7996 13.8891 13.8218 14.9422 13.1338C15.9953 12.4459 17.2334 12.0787 18.5 12.0787C20.1984 12.0787 21.8272 12.7383 23.0282 13.9124C24.2292 15.0866 24.9038 16.6791 24.9038 18.3395Z" fill="#21AE21"/>
</svg>
