<svg width="32" height="32" viewBox="0 0 32 32" fill="none" xmlns="http://www.w3.org/2000/svg">
<path d="M11.4449 5.45282C13.4721 1.81761 14.4848 0 16 0C17.5152 0 18.5279 1.81761 20.5551 5.45282L21.0799 6.39362C21.6559 7.42722 21.9439 7.94402 22.3918 8.28483C22.8398 8.62563 23.3998 8.75203 24.5198 9.00483L25.5374 9.23523C29.4733 10.1264 31.4396 10.5712 31.9084 12.0768C32.3756 13.5808 31.0348 15.1504 28.3517 18.2881L27.6573 19.0993C26.8957 19.9905 26.5134 20.4369 26.3422 20.9873C26.171 21.5393 26.2286 22.1345 26.3438 23.3233L26.4494 24.4065C26.8541 28.5937 27.0573 30.6865 25.8318 31.6161C24.6062 32.5473 22.763 31.6977 19.0799 30.0017L18.1247 29.5633C17.0784 29.0801 16.5552 28.8401 16 28.8401C15.4448 28.8401 14.9216 29.0801 13.8736 29.5633L12.9217 30.0017C9.23696 31.6977 7.3938 32.5457 6.16983 31.6177C4.94266 30.6865 5.14585 28.5937 5.55065 24.4065L5.65624 23.3249C5.77144 22.1345 5.82904 21.5393 5.65624 20.9889C5.48665 20.4369 5.10426 19.9905 4.34267 19.1009L3.64829 18.2881C0.965154 15.152 -0.375615 13.5824 0.0915738 12.0768C0.560363 10.5712 2.52832 10.1248 6.46422 9.23523L7.4818 9.00483C8.60017 8.75203 9.15856 8.62563 9.60815 8.28483C10.0561 7.94402 10.3441 7.42722 10.9201 6.39362L11.4449 5.45282Z" fill="current"/>
</svg>
