<svg width="12" height="7" viewBox="0 0 12 7" fill="none" xmlns="http://www.w3.org/2000/svg">
<path d="M6.71027 6.70469L11.7062 1.71296C11.7993 1.61988 11.8732 1.50937 11.9236 1.38775C11.974 1.26613 12 1.13578 12 1.00413C12 0.738274 11.8943 0.483301 11.7062 0.295309C11.613 0.202225 11.5024 0.128386 11.3807 0.0780091C11.2589 0.0276322 11.1285 0.00170422 10.9967 0.00170421C10.7307 0.0017042 10.4755 0.107317 10.2873 0.295309L6.00085 4.5882L1.71438 0.295309C1.6215 0.201735 1.51099 0.127464 1.38923 0.0767795C1.26747 0.0260948 1.13687 -4.74842e-07 1.00497 -4.80608e-07C0.873067 -4.86374e-07 0.742469 0.0260948 0.620709 0.0767795C0.498951 0.127464 0.388442 0.201735 0.295555 0.295309C0.201904 0.388118 0.127569 0.498536 0.0768423 0.620194C0.0261154 0.741851 -3.81312e-08 0.872341 -4.38921e-08 1.00413C-4.9653e-08 1.13593 0.0261154 1.26642 0.0768422 1.38808C0.127569 1.50973 0.201904 1.62015 0.295555 1.71296L5.29144 6.70469C5.38432 6.79826 5.49483 6.87254 5.61659 6.92322C5.73835 6.97391 5.86895 7 6.00085 7C6.13275 7 6.26335 6.97391 6.38511 6.92322C6.50687 6.87254 6.61738 6.79826 6.71027 6.70469Z" fill="black"/>
</svg>
