<svg width="34" height="34" viewBox="0 0 34 34" fill="none" xmlns="http://www.w3.org/2000/svg">
<path fill-rule="evenodd" clip-rule="evenodd" d="M16.9999 0.333698C7.79493 0.333698 0.333265 7.79537 0.333265 17.0004C0.330198 19.4562 0.871514 21.8821 1.91826 24.1037L0.368265 31.6654C0.31308 31.9354 0.325702 32.2148 0.405001 32.4787C0.4843 32.7426 0.627801 32.9828 0.82266 33.1776C1.01752 33.3725 1.25765 33.516 1.52157 33.5953C1.78548 33.6746 2.06494 33.6872 2.33493 33.632L9.8966 32.082C12.0533 33.0987 14.4633 33.6654 16.9999 33.6654C26.2049 33.6654 33.6666 26.2054 33.6666 16.9987C33.6666 7.79537 26.2049 0.332031 16.9999 0.332031V0.333698Z" fill="#60A7E1"/>
</svg>
