<svg width="183" height="47" viewBox="0 0 183 47" fill="none" xmlns="http://www.w3.org/2000/svg">
<path d="M23.2653 46.64C19.8946 46.64 16.7799 46.0853 13.9213 44.976C11.1053 43.824 8.65192 42.224 6.56125 40.176C4.47058 38.0853 2.84925 35.632 1.69725 32.816C0.587917 29.9573 0.0332501 26.8213 0.0332501 23.408C0.0332501 20.08 0.630583 17.008 1.82525 14.192C3.01992 11.376 4.66258 8.944 6.75325 6.896C8.88658 4.80533 11.3826 3.184 14.2413 2.032C17.1426 0.879997 20.2999 0.303997 23.7133 0.303997C25.8466 0.303997 27.9373 0.581331 29.9853 1.136C32.0333 1.69066 33.9319 2.52266 35.6813 3.632C37.4733 4.69866 39.0093 5.97866 40.2893 7.472L33.6333 15.088C32.7373 14.1493 31.7773 13.3387 30.7533 12.656C29.7719 11.9307 28.6839 11.376 27.4893 10.992C26.2946 10.608 25.0146 10.416 23.6493 10.416C21.9426 10.416 20.3213 10.736 18.7853 11.376C17.2919 11.9733 15.9693 12.848 14.8173 14C13.7079 15.1093 12.8333 16.4747 12.1933 18.096C11.5533 19.7173 11.2333 21.5307 11.2333 23.536C11.2333 25.4987 11.5533 27.2907 12.1933 28.912C12.8333 30.4907 13.7293 31.856 14.8813 33.008C16.0333 34.16 17.4199 35.0347 19.0413 35.632C20.7053 36.2293 22.5399 36.528 24.5453 36.528C25.9106 36.528 27.2119 36.336 28.4493 35.952C29.6866 35.568 30.8173 35.056 31.8413 34.416C32.9079 33.7333 33.8466 32.9653 34.6573 32.112L39.9053 40.432C38.8386 41.6267 37.4093 42.6933 35.6173 43.632C33.8679 44.5707 31.9053 45.3173 29.7293 45.872C27.5959 46.384 25.4413 46.64 23.2653 46.64Z" fill="#373737"/>
<path d="M47.3508 46V1.2H57.0788L73.3988 27.76L66.4228 27.696L82.9348 1.2H92.2788V46H81.7188V32.048C81.7188 28.208 81.8041 24.752 81.9748 21.68C82.1881 18.608 82.5294 15.5573 82.9988 12.528L84.2148 15.856L71.7988 35.12H67.5748L55.4148 15.984L56.6308 12.528C57.1001 15.3867 57.4201 18.3307 57.5908 21.36C57.8041 24.3467 57.9108 27.9093 57.9108 32.048V46H47.3508Z" fill="#FF6868"/>
<path d="M97.8422 46L115.57 1.2H124.786L142.386 46H131.378L122.93 23.28C122.589 22.384 122.248 21.424 121.906 20.4C121.565 19.376 121.224 18.3307 120.882 17.264C120.541 16.1547 120.2 15.088 119.858 14.064C119.56 12.9973 119.304 12.016 119.09 11.12L121.01 11.056C120.754 12.1227 120.456 13.168 120.114 14.192C119.816 15.216 119.496 16.24 119.154 17.264C118.856 18.2453 118.514 19.248 118.13 20.272C117.746 21.2533 117.384 22.2773 117.042 23.344L108.594 46H97.8422ZM106.29 37.424L109.682 29.232H130.29L133.618 37.424H106.29Z" fill="#21AE21"/>
<path d="M147.976 46V1.2H167.304C170.12 1.2 172.616 1.84 174.792 3.12C177.01 4.4 178.76 6.14933 180.04 8.368C181.362 10.5867 182.024 13.0827 182.024 15.856C182.024 18.7573 181.362 21.36 180.04 23.664C178.76 25.9253 177.01 27.7173 174.792 29.04C172.616 30.3627 170.12 31.024 167.304 31.024H158.856V46H147.976ZM158.664 21.488H165.768C166.706 21.488 167.56 21.2533 168.328 20.784C169.096 20.3147 169.714 19.6747 170.184 18.864C170.653 18.0533 170.888 17.1147 170.888 16.048C170.888 14.9387 170.653 14 170.184 13.232C169.714 12.464 169.096 11.8667 168.328 11.44C167.56 11.0133 166.706 10.8 165.768 10.8H158.664V21.488Z" fill="#60A7E1"/>
</svg>
