<svg width="38" height="34" viewBox="0 0 38 34" fill="#FF6868" xmlns="http://www.w3.org/2000/svg">
<path fill-rule="evenodd" clip-rule="evenodd" d="M11.1667 0.695314C12.9586 0.694274 14.7244 1.12491 16.3147 1.9508C17.1693 2.39461 17.9597 2.94553 18.6678 3.58786C20.6485 1.79204 23.2799 0.695314 26.1667 0.695314C32.3337 0.695314 37.3333 5.69491 37.3333 11.862C37.3333 17.2135 34.2031 22.0691 30.6086 25.699C26.9948 29.3486 22.5676 32.1116 19.2973 33.1983C18.8879 33.3343 18.4454 33.3343 18.036 33.1983C14.7658 32.1116 10.3386 29.3486 6.72469 25.699C3.13026 22.0691 0 17.2135 0 11.862C0 5.69538 4.99883 0.696079 11.1653 0.695315M14.4712 5.50064C13.4508 4.97074 12.3178 4.6945 11.1681 4.69531L11.1667 4.69531C7.20874 4.69531 4 7.90405 4 11.862C4 15.6771 6.28641 19.5715 9.56698 22.8845C12.5708 25.9181 16.122 28.1706 18.6667 29.1727C21.2114 28.1706 24.7625 25.9181 27.7664 22.8845C31.0469 19.5715 33.3333 15.6771 33.3333 11.862C33.3333 7.90405 30.1246 4.69531 26.1667 4.69531C23.7445 4.69531 21.6017 5.8953 20.3021 7.74154C19.9273 8.27406 19.3166 8.59072 18.6654 8.59031C18.0142 8.5899 17.404 8.27247 17.0298 7.73949C16.3692 6.79849 15.4915 6.03054 14.4712 5.50064Z" fill="current"/>
</svg>
