<svg width="38" height="33" viewBox="0 0 38 33" fill="none" xmlns="http://www.w3.org/2000/svg">
<path fill-rule="evenodd" clip-rule="evenodd" d="M11.1667 1.8796e-06C12.9586 -0.00103822 14.7244 0.429602 16.3147 1.25549C17.1693 1.6993 17.9597 2.25022 18.6678 2.89254C20.6485 1.09673 23.2799 1.8796e-06 26.1667 1.8796e-06C32.3337 1.8796e-06 37.3333 4.9996 37.3333 11.1667C37.3333 16.5182 34.2031 21.3738 30.6086 25.0037C26.9948 28.6533 22.5676 31.4163 19.2973 32.503C18.8879 32.639 18.4454 32.639 18.036 32.503C14.7658 31.4163 10.3386 28.6533 6.72469 25.0037C3.13026 21.3738 0 16.5182 0 11.1667C0 5.00007 4.99883 0.00076613 11.1653 2.35644e-06M14.4712 4.80533C13.4508 4.27543 12.3178 3.99919 11.1681 4L11.1667 4C7.20874 4 4 7.20874 4 11.1667C4 14.9818 6.28641 18.8762 9.56698 22.1892C12.5708 25.2228 16.122 27.4753 18.6667 28.4774C21.2114 27.4753 24.7625 25.2228 27.7664 22.1892C31.0469 18.8762 33.3333 14.9818 33.3333 11.1667C33.3333 7.20874 30.1246 4 26.1667 4C23.7445 4 21.6017 5.19999 20.3021 7.04623C19.9273 7.57874 19.3166 7.89541 18.6654 7.895C18.0142 7.89459 17.404 7.57716 17.0298 7.04418C16.3692 6.10318 15.4915 5.33522 14.4712 4.80533Z" fill="#FF6868"/>
<path d="M29.3257 15.6465C28.7316 17.0011 27.682 18.5436 27.3881 20.013C27.2817 20.5448 27.4864 19.5054 27.661 19.3307C28.4271 18.5646 29.5033 17.3404 30.5265 16.9019C30.7852 16.791 26.097 22.5052 27.2516 20.0676C27.7548 19.0053 30.4347 14.8277 29.7897 18.3756C29.6809 18.9736 27.0018 21.9464 26.9787 21.9234C26.2855 21.2302 28.4395 18.6293 28.8345 18.1027" stroke="#FF6868" stroke-width="3" stroke-linecap="round"/>
<path d="M23.9222 22.0331C18.0007 25.7341 24.9611 23.3529 26.9788 22.1423C27.4239 21.8752 25.9164 24.5275 25.6688 24.8714C25.3124 25.3664 21.6949 27.2079 23.431 25.4718C23.8948 25.0079 25.7225 23.4323 25.3959 23.616C24.0725 24.3604 23.341 26.0352 21.9573 26.8363C20.2387 27.8313 18.0352 28.5903 16.0625 27.5459C14.6088 26.7763 14.1056 25.0969 13.0059 24.1072C11.7942 23.0167 10.3979 21.4804 9.56723 20.0682C9.09412 19.2639 8.26527 18.3842 7.60229 17.7212C6.87699 16.9959 7.50299 16.0377 7.11105 15.1558C6.42078 13.6027 5.74651 11.0834 5.74651 9.50663C5.74651 7.10073 5.74651 12.4834 5.74651 13.4365C5.74651 14.2324 6.01395 15.5925 5.71922 16.3293C5.66361 16.4684 4.64652 14.2368 4.51842 13.955C2.87551 10.3406 6.26729 6.48646 8.80309 4.45782C10.0423 3.46644 12.6137 4.55691 13.4971 5.44029C14.3441 6.28724 16.8972 8.64419 18.0274 8.76977C20.6371 9.05974 20.5334 9.48411 22.3393 7.67814C22.8761 7.14134 23.9222 5.28154 23.9222 6.04069C23.9222 7.05084 21.5206 7.05898 21.5206 7.51439C21.5206 8.9539 24.2293 6.3136 25.6688 6.3136C26.8059 6.3136 27.9431 6.3136 29.0802 6.3136C30.743 6.3136 32.2732 8.52505 32.2732 9.99786C32.2732 11.4793 29.817 11.5987 29.817 13.4365C29.817 15.015 35.9305 13.7677 30.0627 11.4716C28.2636 10.7676 26.3783 10.5198 24.4407 10.762C22.3575 11.0224 21.7014 14.8718 20.7565 16.3566C20.386 16.9387 18.8173 20.0222 19.0372 18.8128C19.4681 16.4424 22.2528 15.1558 24.3862 15.1558C26.9549 15.1558 24.481 18.876 23.4037 19.5224C22.5226 20.051 16.7905 22.7862 17.0722 20.5321C17.4279 17.6864 21.1887 16.1383 23.6493 16.1383C28.4759 16.1383 25.4977 22.9792 22.3393 23.9981C20.7798 24.5011 16.8564 25.3646 17.6453 22.5244C18.3555 19.9677 21.8437 18.1899 24.3043 17.7212C27.0828 17.1919 22.5629 21.7072 21.8481 22.1423C20.8299 22.7621 13.4444 25.9995 15.9533 23.3977C17.5845 21.706 19.2648 19.1907 21.466 18.2124C23.0722 17.4986 21.6407 24.4129 21.3569 24.9805C21.0079 25.6786 16.9161 30.0983 16.1716 28.6921C15.6322 27.6733 17.2504 24.1664 17.8091 23.2885C19.1643 21.1589 19.9643 29.3191 17.2633 26.618C15.7381 25.0929 14.5108 21.4817 14.1248 19.3586C13.8909 18.0722 16.3544 20.7132 16.4718 21.2417C16.6831 22.1925 12.14 18.1107 11.9142 17.8849C10.9534 16.9241 9.89928 16.0023 9.02141 14.9648C8.96845 14.9022 8.25727 13.7302 8.25727 13.9823C8.25727 15.2478 10.2586 18.4014 10.9045 19.5497C11.5397 20.6789 12.6019 22.9443 12.0234 20.3411C11.4088 17.5754 10.8144 14.9297 10.0585 12.2084C9.24413 9.27683 9.52215 11.8873 9.78556 13.4092C10.0927 15.1839 11.8959 19.9548 10.5497 18.7582C9.15359 17.5172 8.02145 13.9523 7.22022 12.2084C6.96694 11.6572 5.43637 7.57488 6.72898 9.37017C7.81533 10.879 8.92132 12.8115 9.56723 14.5554C10.4762 17.0097 10.6833 14.1568 10.6589 13.0817C10.6225 11.4836 9.6125 6.7904 9.67639 8.3877C9.80567 11.6196 12.0936 15.2422 13.4971 18.1032C15.5331 22.2535 13.9699 16.3156 13.6063 14.9375C13.4861 14.4821 10.9958 8.1274 10.768 8.3877C10.1478 9.09652 13.7107 13.4201 14.0975 14.1734C14.4806 14.9193 14.8291 16.2307 15.4621 16.7933C15.5154 16.8407 15.1221 14.8277 14.9708 14.5554C13.6133 12.1119 11.6587 10.1366 10.2768 7.7873C9.23196 6.01109 11.1901 11.8082 11.7505 13.7913C12.8091 17.5372 13.9119 18.2044 11.6686 14.419C10.6055 12.625 9.18516 10.5009 9.18516 8.33312C9.18516 7.93 10.6357 10.1658 10.9591 10.4891C13.7795 13.3095 13.7343 8.43856 12.6238 7.05045C10.855 4.83948 9.18516 11.5059 9.18516 9.50663C9.18516 4.92305 10.6589 8.58088 10.6589 11.226C10.6589 14.9179 7.80773 10.5028 7.71145 8.76977C7.59863 6.739 10.3755 8.25423 11.2593 8.76977C13.8196 10.2633 15.4637 12.7444 15.5712 15.7562C15.6694 18.5049 15.5543 14.3189 15.5712 13.573C15.5896 12.7628 17.2121 8.68037 18.1366 10.7347C19.0337 12.7284 18.622 14.8932 17.6453 16.6295C17.5981 16.7135 16.8658 12.0572 18.273 11.7445C23.0356 10.6861 15.5712 20.9467 15.5712 16.6295C15.5712 14.5339 17.2654 12.0205 19.4738 11.7445C21.6064 11.4779 20.0314 15.3716 19.4738 16.1383C18.4372 17.5636 17.1611 18.6177 15.8714 19.7953C15.4005 20.2252 14.5887 21.852 14.5887 21.2144C14.5887 18.7039 16.5537 16.4919 16.5537 13.9277C16.5537 11.8589 15.8286 11.3034 13.9338 10.762C12.4753 10.3453 16.3957 12.5749 17.7818 13.1909C19.4765 13.9441 18.7779 12.9064 18.2457 11.6899C17.448 9.86649 16.838 9.75224 15.0254 9.75224C14.0247 9.75224 11.0227 9.75224 12.0234 9.75224C13.3607 9.75224 14.6926 9.76706 16.0079 9.47934C16.8473 9.2957 18.4984 9.04326 19.2009 8.49687C19.5756 8.20541 19.3244 7.45181 19.774 7.32336C21.5806 6.80718 21.9723 5.33113 24.1678 5.33113C26.5895 5.33113 28.8346 4.68489 28.8346 7.7873C28.8346 9.75224 28.8346 11.7172 28.8346 13.6821C28.8346 16.6127 24.6098 13.0909 24.4135 11.226C24.1021 8.26843 27.3609 7.95559 27.3609 11.3351C27.3609 12.9574 27.54 14.6894 27.3609 16.302C27.1487 18.2115 26.9989 12.3663 27.6065 10.5437C28.7163 7.21434 27.9572 12.3561 25.778 13.5184C25.02 13.9226 25.5057 10.4412 23.6493 12.9726C19.5316 18.5877 25.3395 15.602 28.316 13.9277C30.6718 12.6026 31.782 14.3141 31.782 16.8752C31.782 18.6546 27.5135 18.5181 26.3784 19.0857" stroke="#FF6868" stroke-width="3" stroke-linecap="round"/>
<path d="M22.4486 7.29688C22.3892 8.78072 21.4885 11.3664 20.2653 12.1819C19.2294 12.8725 22.4384 10.9582 23.4583 10.2443C24.0986 9.79612 27.7333 8.25357 28.3434 9.0162C28.6714 9.42616 29.3174 9.37406 29.7079 9.86221C30.228 10.5124 29.8171 12.8468 29.8171 13.5738C29.8171 17.3897 30.8719 13.9647 29.3259 13.1917" stroke="#FF6868" stroke-width="3" stroke-linecap="round"/>
<path d="M15.0799 11.7162C13.6321 9.34178 11.2709 5.63617 8.69385 4.34766" stroke="#FF6868" stroke-width="3" stroke-linecap="round"/>
<path d="M29.8499 4.55927C29.8423 4.49916 29.7826 4.55847 29.7578 4.58329C29.692 4.64907 29.6394 4.75114 29.6137 4.83945C29.5988 4.89097 29.6206 5.0208 29.5777 5.05758C29.4055 5.20518 29.1426 4.72418 29.0574 4.66734" stroke="#FF6868" stroke-width="3" stroke-linecap="round"/>
<path d="M33.6321 10.8984C33.6321 11.4252 33.6013 11.8447 33.2078 12.2433C33.0891 12.3635 33.0004 12.4544 32.9677 12.2473C32.9271 11.9904 32.9116 11.7345 32.9116 11.4748" stroke="#FF6868" stroke-width="3" stroke-linecap="round"/>
<path d="M6.47144 19.2188C6.91645 19.5803 7.36579 19.9156 7.77624 20.3234C8.28755 20.8315 8.83549 21.572 9.60536 21.6683" stroke="#FF6868" stroke-width="3" stroke-linecap="round"/>
</svg>
